<?xml version="1.0" standalone="no"?>
<!DOCTYPE svg PUBLIC "-//W3C//DTD SVG 20010904//EN"
 "http://www.w3.org/TR/2001/REC-SVG-20010904/DTD/svg10.dtd">
<svg version="1.0" xmlns="http://www.w3.org/2000/svg"
 width="744.000000pt" height="744.000000pt" viewBox="0 0 744.000000 744.000000"
 preserveAspectRatio="xMidYMid meet">
<metadata>
Created by potrace 1.14, written by Peter Selinger 2001-2017
</metadata>
<g transform="translate(0.000000,744.000000) scale(0.100000,-0.100000)"
fill="#000000" stroke="none">
<path d="M3460 7394 c-1150 -78 -2196 -687 -2823 -1644 -328 -501 -513 -1019
-582 -1625 -20 -178 -20 -601 1 -788 198 -1802 1662 -3181 3466 -3266 567 -26
1118 71 1623 287 1351 577 2226 1903 2225 3372 -1 960 -364 1863 -1024 2548
-593 614 -1345 988 -2206 1097 -119 15 -555 27 -680 19z m-239 -2325 l50 -101
42 6 c225 33 572 33 793 0 l41 -6 49 102 48 102 51 -7 c135 -17 412 -98 600
-175 55 -23 108 -44 117 -47 38 -12 237 -356 333 -578 132 -302 211 -601 250
-935 15 -138 20 -496 8 -623 l-6 -68 -91 -63 c-125 -86 -230 -149 -372 -221
-156 -80 -445 -194 -491 -195 -15 0 -71 81 -147 213 -59 102 -64 117 -43 117
23 0 297 139 297 151 0 11 -13 24 -55 54 -19 13 -31 10 -130 -31 -316 -131
-682 -191 -1008 -165 -253 20 -481 74 -710 167 l-108 44 -35 -26 c-19 -15 -34
-32 -34 -40 0 -16 98 -72 212 -121 46 -19 86 -38 90 -42 8 -7 -106 -207 -162
-285 l-32 -45 -117 41 c-241 84 -501 216 -725 368 -96 65 -112 80 -119 110
-15 67 -11 536 7 680 62 502 232 970 511 1405 l52 80 99 41 c151 64 327 121
486 159 207 49 188 54 249 -66z"/>
<path d="M2956 3936 c-76 -32 -148 -103 -189 -186 -30 -61 -32 -70 -32 -180 0
-111 1 -118 34 -185 38 -77 100 -143 164 -174 173 -84 362 -9 450 177 30 63
32 74 32 182 0 108 -2 119 -31 180 -61 127 -165 201 -294 207 -63 3 -85 0
-134 -21z"/>
<path d="M4226 3936 c-76 -32 -148 -103 -189 -186 -30 -61 -32 -70 -32 -180 0
-108 2 -119 31 -180 35 -75 104 -149 167 -179 173 -84 362 -10 450 177 30 63
32 74 32 182 0 110 -2 119 -32 181 -64 129 -165 200 -293 206 -63 3 -85 0
-134 -21z"/>
</g>
</svg>
